<?xml version="1.0" encoding="iso-8859-1"?>
<!-- Generator: Adobe Illustrator 19.0.0, SVG Export Plug-In . SVG Version: 6.00 Build 0)  -->
<svg version="1.1" id="Layer_1" xmlns="http://www.w3.org/2000/svg" xmlns:xlink="http://www.w3.org/1999/xlink" x="0px" y="0px"
	 viewBox="0 0 512 512" style="enable-background:new 0 0 512 512;" xml:space="preserve">
<path style="fill:#5B5D6E;" d="M358.624,503.983H153.397c-14.168,0-25.653-11.485-25.653-25.653V33.67
	c0-14.168,11.485-25.653,25.653-25.653h205.228c14.168,0,25.653,11.485,25.653,25.653v444.66
	C384.278,492.498,372.793,503.983,358.624,503.983z"/>
<rect x="127.743" y="76.426" style="fill:#28AFF0;" width="256.534" height="359.148"/>
<circle style="fill:#464655;" cx="256.011" cy="469.779" r="17.102"/>
<path style="fill:#FFFFFF;" d="M332.971,110.63H179.05c-9.446,0-17.102,7.656-17.102,17.102v34.205
	c0,9.446,7.656,17.102,17.102,17.102h102.614v23.882c0,3.81,4.606,5.716,7.298,3.023l26.906-26.905h17.102
	c9.446,0,17.102-7.656,17.102-17.102v-34.205C350.073,118.287,342.417,110.63,332.971,110.63z"/>
<path style="fill:#5A4146;" d="M256.011,213.244c-62.237,0-76.384,67.797-76.96,142.49c-0.024,3.108,1.881,5.907,4.8,7.215
	c9.997,4.479,22.118,8.033,35.643,10.342l72.822,0.036c13.61-2.309,25.805-5.877,35.854-10.378c2.919-1.308,4.824-4.107,4.8-7.215
	C332.396,281.041,318.248,213.244,256.011,213.244z"/>
<path style="fill:#D29B6E;" d="M341.522,435.574v-19.317c0-9.206-4.933-17.706-12.926-22.274l-38.316-21.894
	c-5.328-3.045-8.617-8.711-8.617-14.849v-15.729h-51.307v15.729c0,6.138-3.289,11.804-8.617,14.849l-38.316,21.894
	c-7.993,4.567-12.926,13.067-12.926,22.274v19.317H341.522z"/>
<path style="fill:#F0C087;" d="M298.766,281.653v45.333c0,9.011-4.728,17.361-12.455,21.998l-21.502,12.902
	c-5.416,3.249-12.182,3.249-17.598,0l-21.502-12.902c-7.727-4.636-12.455-12.987-12.455-21.998v-45.333c0,0,51.307,0,68.409-17.102
	L298.766,281.653z"/>
<path style="fill:#E4EAF6;" d="M328.596,393.983l-24.963-14.264c-4.716,6.692-22.584,30.087-47.623,38.753
	c-25.039-8.666-42.908-32.061-47.623-38.753l-24.963,14.264c-7.993,4.567-12.926,13.067-12.926,22.274v19.317H341.52v-19.317
	C341.522,407.051,336.59,398.551,328.596,393.983z"/>
<path d="M358.614,0H153.386c-18.566,0-33.67,15.105-33.67,33.67v444.66c0,18.566,15.105,33.67,33.67,33.67h205.228
	c18.566,0,33.67-15.105,33.67-33.67V33.67C392.284,15.105,377.179,0,358.614,0z M178.505,427.557v-11.3
	c0-6.313,3.406-12.181,8.887-15.313l19.856-11.346c2.387,2.893,20.045,23.479,46.218,32.204c0.823,0.275,1.679,0.412,2.535,0.412
	c0.856,0,1.712-0.137,2.535-0.412c26.172-8.724,43.83-29.309,46.218-32.204l19.856,11.346c5.481,3.132,8.887,9,8.887,15.313v11.3
	H178.505z M281.653,171.023H179.04c-5.01,0-9.086-4.076-9.086-9.086v-34.205c0-5.01,4.076-9.086,9.086-9.086H332.96
	c5.01,0,9.086,4.076,9.086,9.086v34.205c0,5.01-4.076,9.086-9.086,9.086h-17.102c-2.126,0-4.165,0.844-5.668,2.348l-20.52,20.518
	v-14.85C289.67,174.612,286.081,171.023,281.653,171.023z M310.247,259.666c9.546,22.034,14.353,53.416,14.695,95.935
	c-0.017,0.01-0.036,0.02-0.06,0.031c-8.747,3.919-19.438,7.097-30.997,9.256c-2.603-1.66-4.215-4.542-4.215-7.648
	c0-0.304-0.02-0.602-0.053-0.897l0.808-0.485c10.083-6.05,16.347-17.113,16.347-28.872v-45.333c0-2.126-0.844-4.165-2.348-5.668
	l-17.102-17.102c-3.131-3.131-8.207-3.131-11.337,0c-5.652,5.652-18.4,10.152-35.895,12.67c-14.252,2.051-26.724,2.084-26.846,2.084
	c-4.427,0-8.017,3.589-8.017,8.017v45.333c0,11.759,6.264,22.822,16.347,28.872l0.809,0.485c-0.033,0.294-0.053,0.593-0.053,0.896
	c0,3.105-1.611,5.987-4.214,7.647c-11.57-2.16-22.246-5.334-30.998-9.254c-0.024-0.011-0.044-0.021-0.061-0.031
	c0.342-42.52,5.149-73.901,14.695-95.934c11.197-25.843,28.941-38.405,54.247-38.405S299.051,233.824,310.247,259.666z
	 M290.739,307.307c0,9.725-7.912,17.637-17.637,17.637H256c-4.427,0-8.017,3.589-8.017,8.017c0,4.427,3.589,8.017,8.017,8.017
	h17.102c4.883,0,9.522-1.053,13.714-2.931c-1.284,1.597-2.842,2.985-4.64,4.064l-21.502,12.902c-2.883,1.731-6.466,1.731-9.349,0
	l-21.502-12.902c-5.281-3.169-8.563-8.964-8.563-15.124V289.43c5.317-0.264,12.787-0.818,20.909-1.977
	c16.975-2.425,29.989-6.521,38.836-12.211l9.733,9.733L290.739,307.307L290.739,307.307z M225.706,379.05
	c5.439-3.107,9.435-8.108,11.364-13.893l6.006,3.603c3.986,2.392,8.455,3.587,12.924,3.587c4.469,0,8.938-1.196,12.924-3.587
	l6.006-3.603c1.928,5.786,5.926,10.786,11.363,13.893l4.261,2.435c-4.655,5.1-17.368,17.707-34.552,24.205
	c-17.082-6.467-29.866-19.106-34.547-24.209L225.706,379.05z M332.563,387.023l-18.342-10.482c6.157-1.805,11.912-3.9,17.217-6.278
	c5.843-2.618,9.587-8.345,9.539-14.593c-0.345-44.811-5.585-78.3-16.017-102.38c-7.904-18.245-18.885-31.335-32.811-39.206
	l27.03-27.029h13.782c13.851,0,25.119-11.268,25.119-25.119v-34.205c0-13.851-11.268-25.119-25.119-25.119H179.04
	c-13.851,0-25.119,11.268-25.119,25.119v34.205c0,13.851,11.268,25.119,25.119,25.119h94.597v20.012
	c-5.546-1.221-11.424-1.841-17.637-1.841c-31.94,0-55.141,16.171-68.96,48.065c-10.432,24.08-15.672,57.568-16.017,102.38
	c-0.048,6.247,3.696,11.975,9.54,14.593c5.307,2.378,11.064,4.471,17.219,6.275l-18.344,10.483
	c-10.464,5.979-16.965,17.181-16.965,29.234v11.3h-26.722V84.443h240.501v343.115h-26.722v-11.3
	C349.528,404.204,343.027,393.002,332.563,387.023z M153.386,16.033h205.228c9.725,0,17.637,7.912,17.637,17.637v34.739H135.749
	V33.67C135.749,23.945,143.661,16.033,153.386,16.033z M135.749,478.33v-34.739h112.712c-11.373,3.279-19.718,13.774-19.718,26.188
	s8.345,22.909,19.718,26.188h-95.075C143.661,495.967,135.749,488.055,135.749,478.33z M256,458.555
	c6.189,0,11.223,5.034,11.223,11.223s-5.034,11.223-11.223,11.223c-6.189,0-11.223-5.034-11.223-11.223S249.811,458.555,256,458.555
	z M358.614,495.967h-95.075c11.373-3.279,19.718-13.774,19.718-26.188s-8.345-22.909-19.718-26.188h112.712v34.739
	C376.251,488.055,368.339,495.967,358.614,495.967z"/>
<path d="M238.898,50.238h34.205c4.427,0,8.017-3.589,8.017-8.017s-3.589-8.017-8.017-8.017h-34.205
	c-4.427,0-8.017,3.589-8.017,8.017S234.47,50.238,238.898,50.238z"/>
<path d="M204.693,50.238c4.427,0,8.017-3.589,8.017-8.017s-3.589-8.017-8.017-8.017h-0.086c-4.427,0-7.974,3.589-7.974,8.017
	S200.266,50.238,204.693,50.238z"/>
<path d="M213.244,136.818h-17.102c-4.427,0-8.017,3.589-8.017,8.017c0,4.427,3.589,8.017,8.017,8.017h17.102
	c4.427,0,8.017-3.589,8.017-8.017C221.261,140.408,217.672,136.818,213.244,136.818z"/>
<path d="M323.875,144.835c0-4.427-3.589-8.017-8.017-8.017h-68.409c-4.427,0-8.017,3.589-8.017,8.017
	c0,4.427,3.589,8.017,8.017,8.017h68.409C320.285,152.852,323.875,149.262,323.875,144.835z"/>
<g>
</g>
<g>
</g>
<g>
</g>
<g>
</g>
<g>
</g>
<g>
</g>
<g>
</g>
<g>
</g>
<g>
</g>
<g>
</g>
<g>
</g>
<g>
</g>
<g>
</g>
<g>
</g>
<g>
</g>
</svg>
