<svg xmlns="http://www.w3.org/2000/svg" viewBox="0 0 60 60"><defs><style>.cls-1{fill:#65b1fc;}.cls-2{fill:#bec3d2;}.cls-3{fill:#87c7ff;}.cls-4{fill:#a3d4ff;}.cls-5{fill:#bfe1ff;}.cls-6{fill:#4a98f7;}.cls-7{fill:#ffe45c;}.cls-8{fill:#ffc247;}.cls-9{fill:#f2f6fc;}.cls-10{fill:#9196aa;}.cls-11{fill:#2b1505;}</style></defs><title>37-Smartphone</title><g id="_37-Smartphone" data-name="37-Smartphone"><rect class="cls-1" x="10" y="9" width="28" height="46" rx="2" ry="2"/><path class="cls-2" d="M42,6V54a5,5,0,0,1-5,5H11a5,5,0,0,1-5-5V6a5,5,0,0,1,5-5H37A5,5,0,0,1,42,6ZM38,53V11a2.006,2.006,0,0,0-2-2H12a2.006,2.006,0,0,0-2,2V53a2.006,2.006,0,0,0,2,2H36A2.006,2.006,0,0,0,38,53Z"/><path class="cls-3" d="M24.294,9H12a2.006,2.006,0,0,0-2,2v8.017A26.527,26.527,0,0,1,24.294,9Z"/><path class="cls-4" d="M38,11.182V11a2.006,2.006,0,0,0-2-2H24.294A26.527,26.527,0,0,0,10,19.017V33.078A33.53,33.53,0,0,1,38,11.182Z"/><circle class="cls-1" cx="14" cy="13" r="1"/><circle class="cls-5" cx="18" cy="13" r="1"/><circle class="cls-5" cx="22" cy="13" r="1"/><circle class="cls-5" cx="26" cy="13" r="1"/><circle class="cls-6" cx="30" cy="13" r="1"/><circle class="cls-6" cx="24" cy="16" r="1"/><circle class="cls-5" cx="20" cy="16" r="1"/><circle class="cls-5" cx="16" cy="16" r="1"/><circle class="cls-5" cx="14" cy="19" r="1"/><circle class="cls-5" cx="18" cy="19" r="1"/><circle class="cls-6" cx="22" cy="19" r="1"/><circle class="cls-6" cx="20" cy="22" r="1"/><circle class="cls-5" cx="16" cy="22" r="1"/><circle class="cls-6" cx="14" cy="25" r="1"/><circle class="cls-6" cx="18" cy="25" r="1"/><circle class="cls-6" cx="16" cy="28" r="1"/><circle class="cls-6" cx="14" cy="31" r="1"/><circle class="cls-6" cx="18" cy="31" r="1"/><circle class="cls-6" cx="16" cy="34" r="1"/><circle class="cls-6" cx="14" cy="37" r="1"/><circle class="cls-6" cx="18" cy="37" r="1"/><circle class="cls-6" cx="16" cy="40" r="1"/><circle class="cls-6" cx="14" cy="43" r="1"/><circle class="cls-6" cx="18" cy="43" r="1"/><circle class="cls-6" cx="16" cy="46" r="1"/><circle class="cls-6" cx="14" cy="49" r="1"/><circle class="cls-6" cx="18" cy="49" r="1"/><circle class="cls-6" cx="22" cy="49" r="1"/><circle class="cls-6" cx="26" cy="49" r="1"/><circle class="cls-6" cx="30" cy="49" r="1"/><path class="cls-7" d="M38,15A16,16,0,1,1,25.18,40.54,20.715,20.715,0,0,0,21,45a12.222,12.222,0,0,1,2.4-7.48A15.979,15.979,0,0,1,38,15Z"/><path class="cls-8" d="M54,31A15.984,15.984,0,0,0,31.463,16.405,15.991,15.991,0,0,1,41.537,46.6,15.992,15.992,0,0,0,54,31Z"/><circle class="cls-9" cx="36" cy="27" r="2"/><circle class="cls-9" cx="44" cy="27" r="2"/><circle class="cls-10" cx="29" cy="5" r="1"/><path class="cls-11" d="M18,6h7a1,1,0,0,0,0-2H18a1,1,0,0,0,0,2Z"/><path class="cls-11" d="M55,31A17.028,17.028,0,0,0,43,14.753V6a6.006,6.006,0,0,0-6-6H11A6.006,6.006,0,0,0,5,6V54a6.006,6.006,0,0,0,6,6H37a6.006,6.006,0,0,0,6-6V47.247A17.028,17.028,0,0,0,55,31ZM41,54a4,4,0,0,1-4,4H11a4,4,0,0,1-4-4V6a4,4,0,0,1,4-4H37a4,4,0,0,1,4,4v8.281a16.853,16.853,0,0,0-2-.23V11a3,3,0,0,0-3-3H12a3,3,0,0,0-3,3V53a3,3,0,0,0,3,3H36a3,3,0,0,0,3-3V47.949a16.853,16.853,0,0,0,2-.23ZM21,31a16.856,16.856,0,0,0,1.257,6.4A13.248,13.248,0,0,0,20,45a1,1,0,0,0,1.831.556,20.859,20.859,0,0,1,3.19-3.6A16.8,16.8,0,0,0,37,47.946V53a1,1,0,0,1-1,1H12a1,1,0,0,1-1-1V11a1,1,0,0,1,1-1H36a1,1,0,0,1,1,1v3.051A17.007,17.007,0,0,0,21,31ZM38,46a14.873,14.873,0,0,1-12.021-6.057,1,1,0,0,0-1.4-.2,17.393,17.393,0,0,0-2.13,1.91A10.8,10.8,0,0,1,24.2,38.117a1,1,0,0,0,.112-1.007A14.994,14.994,0,1,1,38,46Z"/><path class="cls-11" d="M33,27a3,3,0,0,0,6,0c0-6.92-4.95-7-5-7a.994.994,0,0,0-.993.986A1.007,1.007,0,0,0,33.987,22a2.944,2.944,0,0,1,2.519,2.051A2.958,2.958,0,0,0,33,27Zm3,1a1,1,0,1,1,1-1A1,1,0,0,1,36,28Z"/><path class="cls-11" d="M42,20a.994.994,0,0,0-.993.986A1.007,1.007,0,0,0,41.987,22a2.944,2.944,0,0,1,2.519,2.051A3,3,0,1,0,47,27C47,20.08,42.05,20,42,20Zm2,8a1,1,0,1,1,1-1A1,1,0,0,1,44,28Z"/><path class="cls-11" d="M43,40H32a1,1,0,0,0,0,2H43a1,1,0,0,0,0-2Z"/><path class="cls-11" d="M46,36H29a1,1,0,0,0,0,2H46a1,1,0,0,0,0-2Z"/><path class="cls-11" d="M46,32H34a1,1,0,0,0,0,2H46a1,1,0,0,0,0-2Z"/></g></svg>