<?xml version="1.0" encoding="iso-8859-1"?>
<!-- Generator: Adobe Illustrator 19.0.0, SVG Export Plug-In . SVG Version: 6.00 Build 0)  -->
<svg xmlns="http://www.w3.org/2000/svg" xmlns:xlink="http://www.w3.org/1999/xlink" version="1.1" id="Layer_1" x="0px" y="0px" viewBox="0 0 512 512" style="enable-background:new 0 0 512 512;" xml:space="preserve">
<path style="fill:#E0DCDC;" d="M255.16,8.074H103.433H82.124c-18.054,0-32.694,14.637-32.694,32.693v430.465  c0,18.056,14.64,32.694,32.694,32.694h21.309h167.535h21.309c18.055,0,32.694-14.638,32.694-32.694v-59.28h-10.344v-28.827  c-7.471-2.094-14.573-5.053-21.194-8.782l-20.389,20.387l-36.921-36.921l20.385-20.387c-3.726-6.622-6.688-13.725-8.784-21.196  h-28.823v-52.215h28.823c2.096-7.472,5.058-14.576,8.784-21.197l-20.385-20.386l36.921-36.921l20.385,20.385  c6.625-3.726,13.728-6.689,21.197-8.783v-28.825h10.344V40.767c0-18.056-14.64-32.693-32.694-32.693H281"/>
<g style="opacity:0.1;">
	<path style="fill:#231F20;" d="M74.906,471.232V40.767c0-18.056,14.64-32.693,32.694-32.693h-4.167H82.124   c-18.054,0-32.694,14.637-32.694,32.693v430.465c0,18.056,14.64,32.694,32.694,32.694h21.309h4.167   C89.546,503.926,74.906,489.289,74.906,471.232z"/>
	<path style="fill:#231F20;" d="M293.429,205.892c5.594-3.147,11.533-5.741,17.741-7.736l-12.649-12.649l-12.739,12.738   L293.429,205.892z"/>
	<path style="fill:#231F20;" d="M311.173,382.079c-6.209-1.995-12.148-4.587-17.739-7.736l-7.649,7.647l12.737,12.738   L311.173,382.079z"/>
</g>
<circle style="fill:#C9C3C3;" cx="187.203" cy="465.813" r="12.56"/>
<path style="fill:#6AC6D8;" d="M133.88,427.909h157.586V376.31l-18.42,18.418l-36.921-36.921l20.385-20.387  c-3.726-6.622-6.688-13.725-8.784-21.196h-28.823V264.01h28.823c2.096-7.472,5.058-14.576,8.784-21.197l-20.385-20.386  l36.921-36.921l18.42,18.421V74.817H82.935v353.092h25.47"/>
<rect x="82.933" y="74.817" style="fill:#E5E4E4;" width="208.529" height="38.754"/>
<rect x="82.933" y="74.817" style="fill:#DD5136;" width="38.743" height="38.754"/>
<g>
	<circle style="fill:#5D6A7C;" cx="340.734" cy="290.117" r="20.238"/>
	<path style="fill:#5D6A7C;" d="M462.57,316.225v-52.215h-28.823c-2.096-7.472-5.058-14.576-8.786-21.197l20.388-20.386   l-36.921-36.921l-20.389,20.385c-6.62-3.726-13.725-6.689-21.197-8.783v-28.825h-52.215v28.825   c-7.471,2.094-14.573,5.057-21.197,8.783l-20.385-20.385l-36.921,36.921l20.385,20.386c-3.726,6.62-6.688,13.724-8.784,21.197   h-28.823v52.215h28.823c2.096,7.471,5.058,14.575,8.784,21.196l-20.385,20.387l36.921,36.921l20.389-20.387   c6.62,3.729,13.723,6.688,21.194,8.782v28.827h52.215v-28.827c7.472-2.091,14.577-5.053,21.197-8.782l20.389,20.387l36.921-36.921   l-20.388-20.387c3.728-6.622,6.69-13.725,8.782-21.196L462.57,316.225L462.57,316.225z M384.549,320.032l-18.17,16.534   c-7.6,4.205-16.343,6.599-25.642,6.599c-29.297,0-53.047-23.752-53.047-53.047c0-29.297,23.751-53.048,53.047-53.048   c29.297,0,53.045,23.752,53.045,53.048C393.781,301.215,390.373,311.515,384.549,320.032z"/>
</g>
<g>
	<path style="fill:#231F20;" d="M207.832,465.813c0-11.376-9.256-20.633-20.632-20.633c-11.378,0-20.634,9.257-20.634,20.633   s9.257,20.633,20.634,20.633C198.577,486.446,207.832,477.189,207.832,465.813z M182.713,465.813c0-2.474,2.013-4.486,4.487-4.486   c2.473,0,4.485,2.012,4.485,4.486s-2.012,4.486-4.485,4.486C184.727,470.299,182.713,468.287,182.713,465.813z"/>
	<path style="fill:#231F20;" d="M139.096,33.372c-4.46,0-8.074,3.615-8.074,8.074s3.614,8.074,8.074,8.074h65.347   c4.46,0,8.074-3.615,8.074-8.074s-3.614-8.074-8.074-8.074H139.096z"/>
	<path style="fill:#231F20;" d="M228.612,33.372c-4.46,0-8.074,3.615-8.074,8.074s3.614,8.074,8.074,8.074h10.048   c4.46,0,8.074-3.615,8.074-8.074s-3.614-8.074-8.074-8.074H228.612z"/>
	<path style="fill:#231F20;" d="M462.57,255.937h-22.894c-1.369-3.965-2.978-7.844-4.811-11.611l16.191-16.189   c1.515-1.515,2.365-3.568,2.365-5.709s-0.85-4.195-2.364-5.71l-36.921-36.921c-3.154-3.153-8.266-3.154-11.417-0.001   l-16.193,16.189c-3.768-1.834-7.646-3.442-11.611-4.811v-22.894c0-4.459-3.614-8.074-8.074-8.074h-33.797V40.767   C333.044,18.288,314.755,0,292.276,0H281c-4.46,0-8.074,3.615-8.074,8.074s3.614,8.074,8.074,8.074h11.276   c13.576,0,24.621,11.044,24.621,24.62v119.441h-2.27c-4.46,0-8.074,3.615-8.074,8.074v22.895c-2.372,0.819-4.709,1.734-7.014,2.721   v-80.327V74.817c0-4.459-3.614-8.074-8.074-8.074H121.679H82.935c-4.46,0-8.074,3.615-8.074,8.074v38.754v314.338   c0,4.46,3.614,8.074,8.074,8.074h25.47c4.46,0,8.074-3.614,8.074-8.074c0-4.46-3.614-8.074-8.074-8.074H91.009V121.645h30.67   h161.713v62.79l-4.638-4.638c-1.515-1.515-3.568-2.365-5.71-2.365c-2.141,0-4.194,0.85-5.71,2.365l-36.921,36.921   c-3.153,3.153-3.153,8.264,0,11.417l16.188,16.189c-1.833,3.767-3.44,7.646-4.811,11.61h-22.893c-4.46,0-8.074,3.614-8.074,8.074   v52.215c0,4.46,3.614,8.074,8.074,8.074h22.894c1.369,3.965,2.977,7.842,4.811,11.61l-16.189,16.191   c-3.153,3.153-3.153,8.264,0,11.418l36.921,36.921c3.153,3.151,8.265,3.153,11.417,0l4.639-4.638v24.036H133.88   c-4.46,0-8.074,3.614-8.074,8.074c0,4.46,3.614,8.074,8.074,8.074h157.586c4.46,0,8.074-3.614,8.074-8.074v-41.573   c2.305,0.987,4.642,1.902,7.014,2.721v22.895c0,4.46,3.614,8.074,8.074,8.074h2.27v51.206c0,13.576-11.045,24.621-24.621,24.621   H82.124c-13.576,0-24.621-11.045-24.621-24.621V40.767c0-13.576,11.045-24.62,24.621-24.62H255.16c4.459,0,8.074-3.615,8.074-8.074   S259.619,0,255.16,0H82.124C59.644,0,41.355,18.288,41.355,40.767v430.465c0,22.479,18.289,40.768,40.768,40.768h210.153   c22.479,0,40.768-18.289,40.768-40.768v-51.206h33.797c4.46,0,8.074-3.614,8.074-8.074v-22.894   c3.965-1.368,7.844-2.975,11.612-4.81l16.192,16.19c3.152,3.152,8.264,3.152,11.417,0l36.921-36.921   c1.514-1.515,2.364-3.569,2.364-5.71c0-2.141-0.85-4.195-2.365-5.71l-16.192-16.189c1.834-3.768,3.442-7.646,4.811-11.61h22.895   c4.46,0,8.074-3.614,8.074-8.074V264.01C470.644,259.551,467.03,255.937,462.57,255.937z M91.009,105.497V82.891h22.596v22.607   H91.009z M129.752,105.497V82.891h153.639v22.607H129.752z M454.496,308.152h-20.754c-3.62,0-6.798,2.41-7.776,5.897   c-1.895,6.767-4.6,13.298-8.043,19.414c-1.776,3.156-1.235,7.109,1.326,9.67l14.679,14.677l-25.502,25.502l-14.68-14.678   c-2.561-2.562-6.518-3.101-9.67-1.325c-6.112,3.443-12.642,6.148-19.411,8.043c-3.487,0.975-5.898,4.154-5.898,7.776v20.753H324.97   h-2.27v-20.753c0-3.619-2.409-6.797-5.895-7.774c-6.778-1.9-13.308-4.605-19.41-8.044c-3.157-1.776-7.109-1.236-9.67,1.325   l-14.68,14.678l-25.502-25.502l14.676-14.678c2.56-2.56,3.102-6.512,1.326-9.667c-3.439-6.115-6.147-12.648-8.048-19.419   c-0.976-3.484-4.153-5.893-7.773-5.893h-20.75v-36.067h20.75c3.619,0,6.796-2.408,7.774-5.894c0.237-0.846,0.488-1.689,0.75-2.528   c1.838-5.871,4.287-11.541,7.297-16.89c0.666-1.183,1.005-2.479,1.036-3.771c0.05-2.153-0.762-4.297-2.362-5.898l-14.676-14.677   l25.502-25.503l12.711,12.711l0,0l1.964,1.964c2.24,2.24,5.546,2.937,8.452,1.886c0.414-0.15,0.821-0.336,1.216-0.558   c5.356-3.012,11.029-5.462,16.894-7.298c0.838-0.263,1.679-0.512,2.525-0.749c3.485-0.977,5.895-4.154,5.895-7.774v-20.752h2.27   h33.797v20.752c0,3.62,2.409,6.797,5.895,7.774c6.77,1.898,13.302,4.604,19.417,8.046c3.154,1.775,7.107,1.233,9.668-1.326   l14.679-14.677l25.503,25.503l-14.679,14.677c-2.562,2.561-3.104,6.514-1.326,9.67c3.439,6.109,6.148,12.642,8.048,19.417   c0.977,3.485,4.154,5.894,7.774,5.894h20.75v36.067H454.496z"/>
	<path style="fill:#231F20;" d="M340.736,228.997c-33.703,0-61.12,27.42-61.12,61.122s27.418,61.121,61.12,61.121   c10.337,0,20.555-2.63,29.551-7.608c3.901-2.158,5.315-7.07,3.156-10.973c-2.156-3.901-7.07-5.316-10.973-3.156   c-6.61,3.656-14.125,5.589-21.735,5.589c-24.798,0-44.973-20.175-44.973-44.973c0-24.799,20.175-44.974,44.973-44.974   c24.797,0,44.971,20.175,44.971,44.974c0,9.104-2.705,17.871-7.824,25.357c-2.517,3.681-1.573,8.706,2.108,11.223   c3.683,2.516,8.706,1.572,11.223-2.108c6.962-10.182,10.641-22.101,10.641-34.471C401.855,256.415,374.437,228.997,340.736,228.997   z"/>
	<path style="fill:#231F20;" d="M312.424,290.118c0,15.61,12.702,28.311,28.313,28.311c15.61,0,28.311-12.701,28.311-28.311   c0-15.611-12.701-28.312-28.311-28.312C325.125,261.806,312.424,274.507,312.424,290.118z M352.899,290.118   c0,6.707-5.456,12.163-12.163,12.163c-6.708,0-12.166-5.456-12.166-12.163c0-6.707,5.457-12.164,12.166-12.164   C347.443,277.954,352.899,283.411,352.899,290.118z"/>
</g>
<g style="opacity:0.1;">
	<rect x="91.007" y="78.378" style="fill:#231F20;" width="17.224" height="344.416"/>
</g>
<g>
</g>
<g>
</g>
<g>
</g>
<g>
</g>
<g>
</g>
<g>
</g>
<g>
</g>
<g>
</g>
<g>
</g>
<g>
</g>
<g>
</g>
<g>
</g>
<g>
</g>
<g>
</g>
<g>
</g>
</svg>
